{"glyphs":{"0":{"ha":247,"x_min":-4,"x_max":331,"o":"m 32 435 q 82 544 53 492 q 144 636 111 597 q 213 694 178 675 q 282 703 249 714 q 305 689 293 700 q 322 650 317 678 q 317 546 331 608 q 278 419 304 483 q 216 297 251 354 q 144 210 181 239 q 108 187 125 193 q 76 181 90 181 q 49 185 61 181 q 0 269 4 203 q 32 435 -4 335 m 60 213 q 126 232 89 203 q 195 317 163 261 q 252 433 228 372 q 288 552 276 494 q 293 644 300 610 q 283 669 289 663 q 258 676 276 676 q 206 655 233 676 q 152 598 179 633 q 101 517 125 563 q 60 424 76 472 q 29 283 29 340 q 60 213 29 225 z "},"1":{"ha":186,"x_min":-3,"x_max":265,"o":"m 3 182 q 35 265 15 219 q 76 360 54 311 q 120 458 97 410 q 164 547 143 506 q 203 630 185 590 q 231 689 222 669 q 183 667 213 682 q 126 638 154 653 q 107 642 114 631 q 105 653 104 647 q 111 663 106 660 q 149 683 128 672 q 190 704 169 694 q 227 719 210 714 q 253 719 244 724 q 264 707 263 715 q 263 694 265 703 q 253 669 261 686 q 231 619 246 651 q 192 535 217 588 q 148 445 171 493 q 103 349 125 397 q 63 255 82 300 q 31 172 43 210 q 11 163 26 163 q 3 182 -3 168 z "},"2":{"ha":356,"x_min":3,"x_max":457,"o":"m 3 182 q 10 200 3 189 q 32 229 17 211 q 74 274 47 247 q 138 340 100 301 q 197 401 164 368 q 264 471 231 435 q 328 543 297 507 q 382 610 360 579 q 415 666 404 642 q 418 703 425 690 q 410 710 415 706 q 393 714 404 714 q 334 697 368 714 q 267 656 300 679 q 207 606 233 632 q 171 560 181 579 q 163 553 168 554 q 151 554 157 551 q 144 574 139 561 q 185 625 156 596 q 250 681 214 654 q 324 726 286 707 q 392 744 363 744 l 393 744 q 427 735 415 744 q 444 717 439 726 q 440 654 457 693 q 383 564 422 615 q 285 451 343 513 q 158 319 228 389 q 119 278 139 299 q 81 240 99 258 q 51 207 64 221 q 35 185 39 193 q 67 178 44 181 q 121 174 90 175 q 185 173 151 172 q 247 176 218 174 q 258 174 254 178 q 264 163 263 169 q 260 152 264 157 q 250 147 257 147 q 213 144 238 146 q 157 143 188 143 q 112 144 135 143 q 69 147 89 144 q 33 154 49 150 q 11 165 18 158 q 3 182 3 172 z "},"3":{"ha":375,"x_min":-3,"x_max":438,"o":"m 13 150 l 14 150 q 126 172 72 150 q 223 230 181 194 q 292 308 265 265 q 322 392 319 350 q 297 467 326 438 q 207 506 267 496 q 193 518 194 508 q 193 527 192 522 q 202 540 194 532 q 224 561 210 549 q 264 594 239 574 q 303 629 279 608 q 350 671 328 650 q 388 710 372 692 q 404 736 404 728 l 404 738 q 401 739 403 739 q 368 744 392 744 q 331 742 351 744 q 291 737 310 740 q 257 730 272 733 q 235 724 242 726 q 215 732 219 718 q 224 751 211 746 q 241 756 226 753 q 275 764 256 760 q 318 772 294 768 q 364 775 342 775 q 394 773 381 775 q 418 764 408 771 q 431 751 428 758 q 435 739 433 744 q 401 678 438 715 q 283 572 364 640 q 257 550 269 561 q 235 531 244 539 q 326 479 296 515 q 351 390 357 443 q 318 297 347 344 q 243 209 289 249 q 138 144 197 169 q 14 119 78 119 q 2 124 7 119 q -3 135 -3 128 q 13 150 -3 147 z "},"4":{"ha":347,"x_min":14,"x_max":451,"o":"m 201 738 q 210 744 204 743 q 222 742 217 744 q 228 733 228 739 q 226 721 229 726 q 194 666 214 701 q 153 589 175 631 q 111 503 132 547 q 74 421 90 458 q 51 356 58 383 q 49 319 43 328 q 71 328 53 319 q 129 377 89 338 q 239 499 169 417 q 415 728 308 582 q 424 738 421 733 q 444 742 433 749 q 451 733 450 739 q 449 721 451 726 q 429 685 446 717 q 389 604 413 653 q 337 494 365 556 q 281 371 308 433 q 230 249 253 308 q 193 144 207 190 q 174 135 189 135 q 165 142 168 138 q 164 153 161 147 q 198 251 176 196 q 244 364 219 306 q 297 480 269 422 q 347 588 324 538 q 221 433 272 492 q 135 342 169 374 q 80 301 100 311 q 49 290 60 290 q 31 296 39 290 q 20 344 14 307 q 45 429 26 381 q 90 532 64 478 q 141 631 117 586 q 183 706 165 676 q 201 738 201 736 z "},"5":{"ha":338,"x_min":0,"x_max":414,"o":"m 1 160 q 18 172 4 175 q 78 181 47 168 q 139 215 110 193 q 193 266 168 236 q 235 326 218 296 q 258 390 254 361 q 250 433 263 418 q 203 450 238 450 q 118 433 168 450 q 96 440 103 429 q 95 472 90 449 q 112 526 100 496 q 139 589 124 556 q 169 652 154 622 q 197 703 185 682 q 214 731 208 724 q 252 751 228 746 q 304 757 276 757 q 363 752 336 757 q 400 743 389 747 q 408 724 414 738 q 389 715 401 710 q 354 724 378 719 q 306 728 331 728 q 264 724 283 728 q 236 710 244 719 q 209 667 226 699 q 174 597 192 635 q 142 522 157 558 q 122 467 126 486 q 203 479 168 479 q 274 453 251 479 q 289 392 293 429 q 261 311 285 356 q 217 249 243 279 q 161 194 192 218 q 97 156 131 171 q 31 142 64 142 q 22 142 26 142 q 14 143 18 143 q 4 149 8 144 q 1 160 0 153 z "},"6":{"ha":292,"x_min":1,"x_max":369,"o":"m 67 485 q 117 566 88 526 q 183 640 147 606 q 261 701 219 675 q 347 743 303 728 q 365 735 360 749 q 357 715 369 721 q 214 629 276 688 q 110 501 151 571 q 192 487 163 504 q 233 450 221 469 q 251 393 249 425 q 247 328 254 361 q 226 262 240 294 q 192 203 211 229 q 92 140 144 140 q 72 143 78 140 q 22 181 40 151 q 3 257 4 211 q 18 365 1 306 q 67 485 35 424 m 33 258 q 42 206 33 232 q 79 171 51 179 q 168 221 122 160 q 198 272 185 243 q 217 329 211 300 q 222 386 224 358 q 207 433 219 414 q 92 468 178 483 q 46 357 61 411 q 33 258 31 303 z "},"7":{"ha":251,"x_min":-1,"x_max":376,"o":"m 1 164 q 25 201 6 171 q 82 289 44 231 q 158 403 114 336 q 242 535 201 471 q 312 649 282 600 q 343 710 342 699 q 315 721 336 717 q 264 725 294 725 q 209 722 239 725 q 147 715 179 719 q 129 728 132 713 q 142 744 129 742 q 198 751 164 747 q 265 756 232 756 q 324 751 297 756 q 364 732 351 746 q 372 703 376 721 q 348 651 371 690 q 289 554 325 613 q 206 423 253 496 q 107 272 158 350 q 53 192 76 226 q 28 150 31 157 q 15 142 24 142 q 11 142 13 142 q 8 143 10 143 q 1 152 3 146 q 1 164 -1 158 z "},"8":{"ha":332,"x_min":3,"x_max":382,"o":"m 11 297 q 42 367 22 335 q 88 428 63 400 q 143 481 114 457 q 201 526 172 506 q 185 628 186 588 q 194 696 183 669 q 226 740 206 724 q 271 758 246 756 q 317 751 294 761 q 354 719 340 740 q 356 628 382 679 q 308 572 340 599 q 235 514 275 544 q 239 499 238 507 q 243 482 240 490 q 247 471 243 479 q 259 429 251 456 q 272 372 267 403 q 276 306 276 340 q 263 243 275 272 q 199 156 239 183 q 118 129 158 129 q 99 131 108 129 q 81 135 90 132 q 44 156 61 142 q 17 190 28 169 q 5 238 7 211 q 11 297 3 264 m 90 164 q 119 160 103 160 q 183 181 151 160 q 235 254 215 203 q 247 310 246 281 q 242 369 247 340 q 230 423 238 399 q 218 461 222 447 q 214 475 215 472 q 212 484 213 479 q 208 494 211 489 q 156 451 182 474 q 106 404 129 429 q 66 351 83 379 q 40 289 49 322 q 44 203 25 233 q 90 164 63 172 m 228 546 q 290 595 263 572 q 329 642 317 618 q 329 703 349 676 q 305 724 319 718 q 274 729 290 729 q 222 685 239 725 q 228 546 207 647 z "},"9":{"ha":335,"x_min":44,"x_max":428,"o":"m 64 547 q 86 603 71 574 q 122 660 101 633 q 166 705 142 686 q 217 728 190 724 q 258 722 235 731 q 303 676 281 713 q 304 665 306 671 q 297 656 303 658 q 285 654 292 653 q 276 661 279 656 q 221 699 253 703 q 183 681 203 696 q 145 642 163 665 q 114 592 128 619 q 93 539 100 565 q 88 498 86 513 q 94 481 89 483 q 115 481 100 476 q 161 509 131 486 q 240 578 192 532 q 360 701 288 625 q 388 731 378 721 q 404 746 399 742 q 413 749 410 750 q 421 746 417 749 q 426 736 425 743 q 425 724 428 729 q 386 649 411 697 q 333 541 361 600 q 274 418 304 482 q 219 299 243 354 q 178 201 194 243 q 161 143 163 158 q 146 129 161 129 q 135 133 139 129 q 132 144 131 138 q 144 194 133 161 q 174 272 156 228 q 217 368 193 317 q 265 470 240 419 q 314 569 290 521 q 356 654 338 617 q 201 503 265 558 q 99 449 138 449 q 75 457 86 449 q 64 547 44 481 z "},"\u0000":{"ha":0,"x_min":0,"x_max":0,"o":""},"\r":{"ha":347,"x_min":0,"x_max":0,"o":""}," ":{"ha":278,"x_min":0,"x_max":0,"o":""},"m":{"ha":453,"x_min":-76,"x_max":483,"o":"m 6 347 q 25 351 14 360 q 32 342 31 349 q 31 331 33 336 q 19 310 26 325 q 4 274 13 294 q -12 232 -4 254 q -28 190 -21 210 q 100 349 51 297 q 178 390 149 400 q 196 374 189 386 q 188 312 204 351 q 143 219 171 272 q 153 229 149 225 q 163 238 158 233 q 258 323 228 300 q 306 339 289 346 q 319 325 317 333 q 318 286 326 310 q 293 226 310 263 q 283 203 289 217 q 272 176 276 189 q 265 154 267 164 q 264 140 263 144 q 290 149 272 138 q 334 186 308 161 q 390 249 360 211 q 451 333 421 286 q 472 338 460 344 q 474 318 483 331 q 429 254 456 290 q 374 186 403 218 q 316 132 344 154 q 265 110 288 110 q 260 110 263 110 q 256 111 258 111 q 238 128 242 115 q 239 171 231 144 q 265 238 247 197 q 282 276 272 254 q 293 310 292 299 q 271 295 285 306 q 242 271 257 285 q 211 242 226 257 q 183 217 196 228 q 147 183 161 196 q 124 163 133 169 q 110 156 115 157 q 100 157 106 156 q 90 165 94 160 q 92 186 88 174 q 117 232 97 199 q 133 264 124 244 q 152 303 143 283 q 167 340 161 324 q 168 363 172 357 q 135 340 158 364 q 85 285 111 317 q 33 220 58 253 q -6 169 8 188 q -37 127 -29 138 q -50 114 -46 117 q -60 112 -54 111 q -71 117 -67 113 q -73 141 -76 122 q -61 185 -69 160 q -41 240 -53 211 q -19 292 -29 268 q -2 331 -10 315 q 6 347 6 347 z "},"n":{"ha":357,"x_min":-87,"x_max":382,"o":"m 3 342 q 24 344 14 353 q 30 335 29 342 q 28 324 31 329 q 14 301 22 317 q -3 265 6 285 q -22 225 -12 246 q -39 185 -32 204 q -25 201 -31 196 q 37 273 7 239 q 93 332 67 307 q 142 370 119 357 q 181 381 164 383 q 197 375 192 379 q 204 367 201 371 q 207 319 215 349 q 186 254 199 290 q 172 217 179 235 q 163 183 165 199 q 162 169 163 179 q 165 158 161 160 q 196 165 176 154 q 241 200 215 176 q 296 258 267 224 q 356 335 325 292 q 376 338 365 344 q 381 328 382 333 q 375 317 379 322 q 331 258 358 293 q 272 191 303 222 q 210 140 242 160 q 156 129 179 121 q 133 189 125 142 q 144 226 136 206 q 158 265 151 246 q 167 289 163 275 q 175 315 171 303 q 181 338 179 328 q 179 351 182 349 q 143 334 167 353 q 92 288 119 315 q 40 231 65 261 q -3 182 14 201 q -47 131 -35 144 q -68 118 -60 118 q -70 119 -69 118 q -74 119 -71 119 q -85 131 -81 122 q -76 172 -87 140 q -48 240 -64 204 q -17 305 -32 275 q 3 342 -1 335 z "},"l":{"ha":231,"x_min":-32,"x_max":326,"o":"m -3 324 l 0 335 q 45 454 18 392 q 102 575 72 517 q 163 683 132 633 q 218 764 193 733 q 299 811 269 824 q 321 788 317 807 q 309 724 326 765 q 260 633 292 682 q 192 531 229 583 q 119 433 154 478 q 58 358 83 389 q 25 318 32 326 q 1 219 7 261 q 7 157 -4 176 q 28 149 14 149 q 68 165 44 150 q 119 203 92 179 q 174 261 146 228 q 229 333 203 294 q 249 338 239 346 q 250 318 260 331 q 198 248 226 283 q 140 185 169 213 q 82 139 111 157 q 29 119 53 121 l 26 119 q -17 140 -3 119 q -27 215 -32 167 q -3 324 -22 263 m 53 397 q 138 508 94 449 q 218 622 182 567 q 275 719 254 676 q 292 781 296 763 q 289 783 292 783 q 276 778 286 783 q 242 744 265 772 q 191 676 217 715 q 141 590 165 636 q 94 495 117 544 q 53 397 71 446 z "},"o":{"ha":260,"x_min":-54,"x_max":285,"o":"m 26 367 q 85 393 54 393 q 108 389 99 393 q 118 369 124 385 q 108 361 117 364 q 115 350 114 357 q 119 308 122 335 q 104 253 115 282 q 129 247 118 247 q 169 253 150 246 q 204 272 188 260 q 235 301 221 285 q 258 333 249 318 q 267 340 261 339 q 279 338 274 340 q 284 328 285 335 q 281 317 283 322 q 126 217 208 211 q 93 225 108 219 q 77 194 88 211 q 53 160 67 176 q 24 134 40 144 q -8 124 8 124 q -21 125 -17 124 q -37 133 -28 126 q -50 157 -46 139 q -51 204 -54 176 q -37 262 -47 232 q -10 320 -26 292 q 26 367 6 349 m -21 165 q -14 154 -18 154 q 43 196 10 147 q 67 239 56 217 q 40 274 49 254 q 33 314 32 294 q 36 327 35 321 q 40 339 38 333 q 11 299 24 322 q -10 250 -1 275 q -22 202 -18 225 q -21 165 -25 179 m 78 269 q 90 315 88 296 q 88 339 92 333 q 68 328 72 339 q 64 311 64 317 q 78 269 61 290 z "},"p":{"ha":272,"x_min":-239,"x_max":218,"o":"m 7 344 q 16 350 10 350 q 28 347 22 350 q 33 337 32 343 q 29 325 33 331 q 10 295 22 317 q -17 243 -1 274 q -49 175 -32 213 q -85 97 -67 138 q -13 228 -49 168 q 55 330 22 288 q 117 393 88 372 q 171 406 146 414 q 214 329 218 390 q 200 272 213 303 q 168 213 188 240 q 124 165 149 185 q 75 139 100 144 q 37 141 60 136 q -6 181 14 146 q -47 103 -26 143 q -87 27 -68 64 q -122 -42 -106 -10 q -150 -100 -137 -75 q -179 -160 -168 -137 q -198 -197 -190 -183 q -210 -215 -206 -210 q -218 -219 -214 -219 q -226 -217 -221 -219 q -236 -206 -233 -214 q -224 -156 -239 -197 q -184 -56 -208 -114 q -130 67 -160 1 q -72 191 -100 133 q -23 292 -44 249 q 7 344 -1 335 m 17 201 q 33 179 25 186 q 48 169 40 172 q 61 167 56 167 q 69 168 67 168 q 108 189 88 172 q 144 229 128 206 q 172 280 161 253 q 185 332 183 307 q 161 378 186 369 q 132 370 149 382 q 96 335 115 358 q 55 278 76 311 q 11 208 33 246 q 17 201 15 204 z "},"q":{"ha":246,"x_min":-78,"x_max":186,"o":"m 43 372 q 72 387 58 383 q 96 390 85 390 q 118 387 108 390 q 135 379 128 383 q 141 370 140 376 q 139 358 142 364 q 130 352 136 353 q 118 354 124 351 q 96 360 108 360 q 58 347 79 360 q 18 312 38 335 q -16 263 -1 289 q -39 213 -31 238 q -44 174 -47 189 q -39 164 -44 164 q -12 172 -29 161 q 24 201 4 183 q 62 240 43 219 q 93 275 81 261 q 145 329 129 315 q 174 339 161 343 q 183 331 181 339 q 184 314 186 325 q 172 278 182 303 q 141 209 161 253 q 88 94 121 165 q 81 78 85 86 q 74 63 76 71 q 85 47 82 51 q 92 -6 96 25 q 74 -68 88 -36 q 42 -131 61 -100 q 7 -185 24 -162 q -28 -221 -15 -212 q -50 -229 -42 -229 q -52 -228 -51 -229 q -56 -228 -53 -228 q -67 -218 -64 -225 q -67 -193 -71 -210 q -52 -145 -64 -176 q -19 -67 -40 -114 q 33 49 1 -19 q 7 50 26 50 q -5 52 0 49 q -10 63 -10 56 q -7 74 -11 69 q 4 79 -3 78 q 47 76 28 81 q 53 91 50 83 q 61 107 57 99 q 106 203 83 153 q 142 285 128 253 q 128 270 135 278 q 115 256 122 263 q 22 161 63 196 q -49 136 -18 126 q -64 144 -56 138 q -75 171 -72 151 q -69 221 -78 192 q -43 278 -60 250 q -3 333 -26 307 q 43 372 19 358 m 63 21 q 60 32 63 24 q 29 -33 44 0 q 1 -97 14 -67 q -22 -152 -12 -128 q -36 -192 -32 -176 q -5 -153 -24 -179 q 30 -95 14 -126 q 56 -33 46 -64 q 63 21 67 -1 z "},"r":{"ha":214,"x_min":-86,"x_max":210,"o":"m 7 350 q 28 357 14 363 q 35 336 40 350 q 9 285 25 319 q -22 214 -7 250 q 15 269 -6 240 q 58 322 35 299 q 108 362 82 346 q 160 378 133 378 q 197 369 179 378 q 204 350 210 364 q 196 342 201 344 q 183 343 190 340 q 160 349 172 349 q 112 331 136 349 q 66 286 88 313 q 24 229 44 260 q -11 174 4 199 q -45 122 -35 136 q -67 108 -56 108 q -81 117 -75 108 q -73 163 -86 126 q -42 242 -60 200 q -9 316 -25 283 q 7 350 7 349 z "},"s":{"ha":224,"x_min":-85,"x_max":249,"o":"m -85 104 q -49 162 -83 128 q 33 231 -14 196 q -7 268 21 251 q -19 310 -31 285 q 1 338 -14 324 q 36 362 17 351 q 78 377 56 372 q 118 378 100 382 q 129 361 132 375 q 113 349 126 346 q 82 347 99 351 q 50 335 65 343 q 24 317 35 328 q 8 299 13 307 q 10 293 7 296 q 58 247 40 274 q 111 281 85 265 q 160 310 138 297 q 201 331 183 322 q 229 340 219 339 q 247 328 244 343 q 244 317 249 321 q 233 313 240 314 q 165 280 210 307 q 72 219 119 253 q 67 140 85 178 q 24 90 53 108 q -35 71 -4 71 q -47 71 -42 71 q -58 74 -53 71 q -81 89 -76 79 q -85 104 -85 99 m -54 103 l -53 103 q -50 101 -51 103 q 1 110 -25 94 q 40 153 28 125 q 46 201 50 176 q -26 142 3 169 q -54 103 -56 114 z "},"t":{"ha":225,"x_min":-37,"x_max":299,"o":"m 85 525 q 58 522 71 524 q 36 519 46 521 q 11 517 22 519 q -4 531 -4 517 q -1 542 -6 538 q 10 547 3 546 q 19 548 13 547 q 33 550 25 549 q 69 553 51 551 q 103 557 86 554 q 169 669 136 619 q 222 746 201 719 q 275 778 256 786 q 292 760 290 772 q 276 690 299 738 q 200 564 253 643 q 268 560 249 567 q 279 542 282 557 q 260 532 275 528 q 228 535 250 535 q 179 532 207 535 q 130 463 156 500 q 72 383 104 425 q 47 347 58 364 q 24 315 35 331 q 3 249 10 276 q -4 202 -3 221 q -3 173 -6 183 q 1 157 -1 163 q 22 149 8 149 q 63 165 39 150 q 113 203 86 179 q 169 261 140 228 q 224 333 197 294 q 243 339 233 346 q 246 318 256 329 q 194 248 222 283 q 135 185 165 213 q 76 139 106 157 q 22 119 47 121 l 21 119 q -24 140 -7 119 q -33 208 -37 165 q -11 302 -28 250 q 31 412 6 354 q 85 525 56 469 m 163 561 q 201 621 183 592 q 234 675 219 650 q 257 719 249 700 q 265 747 265 738 q 213 683 249 735 q 138 560 178 631 q 150 560 144 560 q 163 561 156 561 m 72 435 q 105 480 88 456 q 140 529 122 504 q 119 528 126 529 q 96 481 108 504 q 72 435 83 458 z "},"u":{"ha":307,"x_min":-60,"x_max":335,"o":"m 8 350 q 29 353 19 363 q 32 332 42 344 q 7 288 19 317 q -15 232 -6 260 q -27 181 -24 204 q -25 154 -31 158 q 7 176 -15 154 q 54 228 29 199 q 103 290 79 258 q 140 339 126 321 q 167 374 157 361 q 182 392 176 386 q 190 399 188 397 q 197 400 193 400 q 210 394 206 400 q 212 378 214 388 q 194 336 210 368 q 176 294 188 319 q 156 243 165 269 q 143 195 147 217 q 143 163 139 174 q 154 163 146 161 q 180 178 163 164 q 226 227 197 193 q 299 324 256 261 q 309 338 303 331 q 325 338 315 344 q 331 323 335 331 q 321 308 326 315 q 206 163 250 204 q 133 132 161 121 q 115 151 119 139 q 116 210 106 172 q 146 296 126 249 q 39 167 79 211 q -25 124 -1 124 q -28 125 -28 124 q -53 144 -46 126 q -54 192 -60 163 q -37 253 -49 222 q -13 312 -26 285 q 8 350 0 339 z "},"v":{"ha":233,"x_min":-37,"x_max":263,"o":"m 19 386 q 39 394 26 400 q 47 374 51 388 q 31 328 42 361 q 10 258 19 294 q -6 191 0 222 q -4 153 -11 160 q 20 172 7 158 q 47 204 33 186 q 74 240 61 222 q 94 269 86 257 q 85 292 86 279 q 85 326 82 307 q 97 361 89 344 q 115 392 104 378 q 138 414 126 407 q 161 422 151 424 q 174 417 171 419 q 183 384 188 407 q 157 318 179 361 q 133 278 151 308 q 136 276 135 278 q 162 280 149 275 q 187 293 175 285 q 209 311 199 301 q 226 328 219 321 l 235 336 q 256 335 247 346 q 257 322 263 328 q 247 310 251 315 q 226 290 239 301 q 199 267 214 278 q 166 251 183 257 q 131 247 149 244 q 118 251 122 250 q 88 208 104 231 q 54 166 71 185 q 22 135 38 147 q -7 124 6 124 q -15 125 -12 124 q -24 131 -18 126 q -32 142 -29 135 q -36 178 -37 156 q -29 228 -35 201 q -15 283 -24 256 q 1 334 -7 311 q 14 372 8 357 q 19 386 19 386 m 114 300 q 143 356 133 332 q 154 392 153 381 q 131 362 146 386 q 113 310 115 338 q 114 300 113 303 z "},"w":{"ha":321,"x_min":-54,"x_max":351,"o":"m 13 363 q 22 369 15 368 q 33 367 28 369 q 40 358 39 364 q 38 346 40 351 q 22 314 33 340 q 0 255 11 288 q -17 192 -11 222 q -18 149 -24 163 q 88 299 7 139 q 114 348 107 338 q 131 358 121 358 q 143 353 138 361 q 147 334 149 346 q 136 282 146 322 q 128 249 133 269 q 120 209 124 229 q 115 172 117 189 q 115 147 113 156 q 149 187 126 154 q 196 271 171 219 q 190 281 192 275 q 185 293 188 286 q 183 356 176 321 q 207 408 190 390 q 244 421 226 428 q 261 361 274 414 q 251 326 258 347 q 232 281 243 304 q 261 283 247 278 q 287 299 275 289 q 308 319 299 308 q 321 335 317 329 q 340 338 331 344 q 340 318 351 331 q 324 298 335 311 q 299 272 314 285 q 265 253 283 260 q 224 251 246 246 q 222 252 222 251 q 219 253 221 253 q 202 217 214 240 q 175 172 190 194 q 142 133 160 150 q 108 117 125 117 q 92 129 99 119 q 85 177 81 144 q 99 254 89 210 q 35 151 65 190 q -22 118 6 111 q -35 124 -28 119 q -46 139 -42 128 q -47 196 -54 160 q -26 268 -39 232 q -1 332 -14 304 q 13 363 11 360 m 213 307 q 233 365 228 343 q 235 393 238 386 q 233 391 235 392 q 229 388 232 390 q 213 353 218 376 q 213 307 207 329 z "},"x":{"ha":232,"x_min":-126,"x_max":257,"o":"m -124 136 q -76 190 -106 158 q -14 254 -47 221 q -1 326 -10 293 l 0 336 q 18 349 3 351 q 29 331 32 346 l 28 321 q 24 305 25 313 q 22 289 24 297 q 94 358 61 328 q 140 397 126 388 q 152 399 146 400 q 161 393 158 399 q 157 372 169 382 q 135 354 150 367 q 101 324 121 342 q 60 285 82 307 q 15 240 38 264 q 22 147 7 169 q 32 142 26 142 q 74 158 49 140 q 128 205 100 176 q 183 268 156 233 q 231 333 210 303 q 251 338 239 344 q 256 329 257 335 q 253 318 256 324 q 224 276 247 310 q 168 206 200 243 q 100 140 136 169 q 33 111 64 111 q 29 113 31 111 q 3 123 13 113 q -10 149 -6 133 q -17 181 -15 164 q -18 208 -18 197 q -63 159 -42 182 q -100 117 -85 136 q -111 111 -106 111 q -121 115 -117 111 q -126 124 -126 118 q -124 136 -126 131 z "},"y":{"ha":357,"x_min":-243,"x_max":388,"o":"m -240 -193 q -210 -111 -239 -157 q -119 -33 -182 -65 q -20 23 -81 -12 q 107 104 40 58 q 144 207 126 153 q 179 321 163 261 q 58 176 108 226 q -25 138 7 126 q -36 144 -31 140 q -44 158 -42 147 q -46 203 -51 175 q -31 260 -40 232 q -9 314 -21 289 q 10 349 3 339 q 19 356 13 354 q 29 353 25 357 q 36 344 35 350 q 33 332 38 338 q 11 289 22 315 q -8 236 0 263 q -18 190 -15 210 q -15 165 -21 169 q 168 356 19 156 q 188 383 181 374 q 201 398 196 393 q 209 403 206 403 q 217 400 213 403 q 224 392 222 397 q 225 381 226 386 l 222 369 q 192 259 210 319 q 151 135 175 199 q 263 230 211 179 q 356 333 315 281 q 376 338 364 344 q 378 318 388 331 q 267 195 331 256 q 132 83 204 135 q 87 -17 111 32 q 35 -108 63 -65 q -23 -183 8 -150 q -89 -236 -54 -217 q -138 -258 -117 -251 q -175 -264 -160 -264 q -195 -261 -186 -264 q -211 -256 -204 -258 q -240 -193 -243 -236 m -175 -235 q -104 -210 -146 -235 q -6 -115 -54 -182 q 86 54 42 -47 q -17 -10 33 18 q -106 -60 -67 -39 q -184 -126 -158 -87 q -211 -194 -210 -165 q -175 -235 -211 -235 z "},"z":{"ha":265,"x_min":-218,"x_max":297,"o":"m -146 -82 q -106 -49 -126 -65 q -64 -15 -85 -32 q -8 31 -36 8 q 49 79 21 54 l 49 85 q 25 148 42 121 q -12 182 8 175 q -24 194 -21 185 q -17 211 -25 203 q 19 242 -8 219 q 53 269 33 253 q 90 301 72 285 q 121 335 108 318 q 133 363 133 351 q 131 369 133 367 q 113 372 125 375 q 85 361 100 369 q 53 340 69 353 q 21 314 36 328 q 10 310 17 310 q 0 315 4 311 q 1 336 -11 326 q 22 354 8 343 q 51 376 35 365 q 86 394 68 386 q 121 401 104 401 q 151 391 139 401 q 164 361 164 381 q 147 320 164 343 q 106 275 129 297 q 57 233 82 253 q 17 201 32 214 q 52 162 36 188 q 75 103 68 136 q 175 210 131 153 q 264 332 219 268 q 283 339 271 344 q 288 319 297 332 q 191 185 240 249 q 81 67 142 121 q 78 10 82 44 q 60 -63 75 -24 q 13 -146 44 -103 q -74 -229 -19 -189 q -126 -260 -104 -251 q -164 -268 -149 -268 q -190 -262 -181 -268 q -204 -249 -200 -256 q -217 -217 -215 -236 q -211 -174 -218 -197 q -187 -128 -204 -151 q -146 -82 -171 -104 m -182 -231 q -164 -237 -175 -237 q -134 -231 -153 -237 q -90 -204 -115 -224 q -19 -138 -47 -172 q 24 -72 8 -104 q 45 -10 39 -39 q 51 42 51 19 q 3 1 28 21 q -46 -39 -22 -19 q -86 -72 -65 -56 q -126 -106 -107 -89 q -181 -178 -169 -142 q -182 -231 -193 -215 z "},"f":{"ha":222,"x_min":-237,"x_max":251,"o":"m -100 144 q -121 181 -121 164 q -110 206 -124 197 q -78 204 -97 214 q -75 202 -76 203 q -72 200 -74 201 q -22 297 -47 250 q 28 383 4 343 q 74 452 53 422 q 110 499 94 482 q 131 516 119 508 q 154 519 142 524 q 172 499 171 515 q 158 456 175 482 q 115 402 140 429 q 65 351 90 375 q 25 317 39 328 q -13 249 6 285 q -51 175 -32 213 q -39 144 -43 164 q 4 149 -22 142 q 64 179 31 157 q 138 239 97 201 q 222 335 178 276 q 242 339 231 346 q 243 319 251 329 q 88 160 160 210 q -33 114 15 111 q -31 54 -31 86 q -37 -11 -32 22 q -49 -77 -42 -44 q -65 -137 -56 -110 q -122 -252 -90 -212 q -190 -292 -154 -292 q -199 -290 -196 -292 q -229 -264 -221 -289 q -230 -199 -237 -242 q -203 -102 -222 -157 q -158 17 -185 -47 q -100 144 -132 81 m -204 -242 q -196 -261 -201 -261 q -142 -229 -169 -264 q -93 -128 -115 -194 q -64 7 -71 -61 q -65 121 -57 75 q -70 124 -68 122 q -75 126 -72 125 q -126 15 -103 71 q -168 -89 -150 -40 q -196 -177 -186 -137 q -204 -242 -206 -217 m 143 489 q 78 404 121 474 q 120 453 101 429 q 143 489 139 476 m -86 174 q -87 174 -87 174 q -89 175 -87 175 q -87 174 -87 175 q -86 174 -87 174 z "},"g":{"ha":331,"x_min":-235,"x_max":356,"o":"m 43 61 q 73 85 58 72 q 103 110 88 97 q 143 240 136 190 q 136 301 150 289 q 106 273 126 296 q 69 229 86 250 q -1 150 33 185 q -62 115 -35 115 q -81 121 -69 115 q -96 140 -90 126 q -93 182 -101 154 q -64 248 -86 210 q -12 322 -42 286 q 50 381 17 357 q 113 406 83 406 q 128 390 128 406 q 113 375 128 375 q 65 354 92 375 q 11 303 38 333 q -36 239 -15 274 q -65 175 -57 204 q -65 146 -71 149 q -46 153 -60 142 q -15 181 -32 164 q 18 216 1 197 q 46 249 35 235 q 106 316 82 293 q 149 328 129 339 q 171 301 165 319 q 175 258 176 282 q 167 205 174 233 q 150 149 160 176 q 257 248 210 199 q 331 333 304 297 q 350 339 340 344 q 355 331 356 336 q 351 319 354 325 q 259 214 317 275 q 126 90 201 153 q 97 26 117 64 q 53 -53 78 -11 q 1 -135 29 -94 q -58 -209 -28 -176 q -117 -262 -87 -242 q -174 -282 -147 -282 q -197 -278 -185 -282 q -224 -258 -217 -269 q -232 -236 -231 -246 q -214 -179 -235 -211 q -155 -109 -193 -147 q -65 -28 -117 -71 q 43 61 -14 15 m -201 -232 q -199 -241 -201 -236 q -185 -250 -196 -246 q -137 -240 -167 -258 q -74 -181 -108 -221 q -1 -85 -39 -142 q 69 38 36 -29 q 74 47 71 42 q 61 38 65 42 q -34 -41 14 -1 q -120 -117 -82 -81 q -181 -183 -158 -153 q -201 -232 -204 -214 z "},"h":{"ha":356,"x_min":-64,"x_max":381,"o":"m -1 331 q 55 472 24 397 q 118 614 86 547 q 181 732 150 681 q 233 801 211 783 q 271 811 254 818 q 294 786 288 806 q 287 724 301 764 q 246 638 272 685 q 186 539 219 590 q 121 443 153 488 q 62 364 89 399 q 24 315 35 329 q 1 257 11 283 q -17 208 -10 231 q -10 218 -11 214 q 123 367 74 319 q 203 404 172 415 q 222 386 215 401 q 221 331 232 365 q 193 254 210 296 q 183 226 189 242 q 172 196 176 211 q 165 169 167 181 q 165 154 163 158 q 188 155 174 150 q 224 179 201 160 q 278 235 246 199 q 354 333 310 272 q 363 340 357 339 q 375 338 369 340 q 381 328 381 335 q 378 318 381 322 q 323 247 350 282 q 271 183 296 211 q 222 139 246 156 q 175 122 197 122 q 153 128 163 122 q 137 148 140 135 q 137 179 133 161 q 148 219 140 197 q 165 265 156 242 q 177 297 171 281 q 188 328 183 313 q 195 356 193 343 q 194 374 197 368 q 159 358 183 378 q 107 308 135 338 q 53 248 79 279 q 14 199 28 217 q -15 164 -4 176 q -32 145 -25 151 q -43 138 -39 139 q -51 138 -47 136 q -62 151 -62 140 q -47 208 -64 158 q -1 331 -29 258 m 63 413 q 138 519 100 463 q 206 628 176 576 q 253 719 236 679 q 265 778 271 760 q 261 783 265 783 q 226 750 249 783 q 176 664 204 717 q 119 544 149 611 q 63 413 90 478 z "},"e":{"ha":238,"x_min":-61,"x_max":257,"o":"m 39 369 q 69 381 56 381 q 90 374 81 381 q 108 356 104 365 q 110 340 111 347 q 101 319 110 328 q 81 303 93 310 q 56 292 69 296 q 32 289 43 289 q 7 294 18 289 q -21 239 -10 268 q -29 186 -32 210 q -10 154 -29 161 q 17 149 1 149 q 83 172 49 149 q 148 226 118 196 q 201 286 178 257 q 231 328 224 315 q 240 335 233 333 q 251 333 246 336 q 256 324 257 331 q 251 313 254 318 q 231 281 251 311 q 176 214 210 250 q 101 148 143 178 q 17 118 60 118 q -35 135 -14 118 q -60 185 -57 151 q -53 237 -61 208 q -30 291 -44 265 q 3 338 -15 317 q 39 369 21 360 m 60 325 q 81 343 81 333 q 79 344 81 344 q 75 349 79 347 q 64 349 69 351 q 54 344 58 347 q 26 319 43 338 q 60 325 43 317 z "},"d":{"ha":339,"x_min":-82,"x_max":417,"o":"m 43 365 q 79 374 63 374 q 140 344 115 374 q 141 342 140 343 q 142 340 142 342 q 165 399 153 371 q 188 450 176 426 q 203 484 192 458 q 233 543 215 510 q 272 613 250 576 q 315 677 293 649 q 356 722 336 706 q 392 731 376 738 q 403 674 417 718 q 371 606 394 649 q 315 514 347 564 q 242 410 282 464 q 163 308 203 357 q 149 263 154 285 q 139 222 143 242 q 136 172 133 189 q 144 153 139 156 q 165 151 151 150 q 201 168 179 151 q 256 222 224 185 q 331 326 288 258 q 340 336 336 333 q 351 335 344 339 q 358 325 357 332 q 354 311 358 318 q 158 121 233 121 q 132 126 143 121 q 106 173 108 138 q 115 253 104 208 q 20 162 64 196 q -47 133 -24 128 q -79 174 -75 140 q -72 223 -82 194 q -45 279 -62 251 q -5 331 -28 307 q 43 365 18 354 m -49 176 q -46 165 -49 167 q -40 163 -43 164 q -26 167 -36 161 q 3 187 -15 172 q 50 228 22 201 q 114 297 78 256 q 124 309 119 304 q 135 321 129 314 q 118 325 125 315 q 79 344 99 344 q 56 338 69 344 q 14 307 33 328 q -20 263 -6 286 q -42 215 -35 239 q -49 176 -50 192 m 379 701 q 346 669 367 697 q 300 600 325 642 q 249 506 275 558 q 199 400 222 454 q 271 500 238 451 q 328 590 304 549 q 367 660 353 631 q 379 701 381 689 z "},"j":{"ha":161,"x_min":-419,"x_max":185,"o":"m -339 -64 l -283 -26 q -178 44 -232 8 q -71 119 -124 81 q -24 254 -46 185 q 18 394 -1 324 q 36 404 22 408 q 47 386 50 401 q 10 261 28 319 q -28 151 -8 203 q 83 247 36 200 q 158 332 131 293 q 167 340 161 338 q 178 339 172 342 q 185 330 185 336 q 182 318 185 324 q 90 215 147 272 q -46 100 33 157 q -89 -3 -62 57 q -151 -118 -115 -64 q -235 -210 -187 -172 q -340 -249 -282 -249 q -385 -235 -371 -249 q -404 -215 -400 -222 q -405 -142 -419 -186 q -339 -64 -390 -99 m -378 -201 q -342 -219 -368 -219 q -255 -187 -294 -219 q -183 -111 -215 -156 q -128 -17 -151 -67 q -90 68 -106 33 q -178 8 -133 38 q -267 -51 -222 -22 l -324 -89 q -375 -148 -361 -114 q -378 -201 -389 -182 m 54 507 q 76 507 64 517 q 76 486 88 499 q 69 476 74 482 q 63 465 65 469 l 63 458 q 49 447 58 447 q 46 448 47 447 q 43 449 44 449 q 32 460 35 451 q 40 488 29 472 q 54 507 51 504 z "},"k":{"ha":322,"x_min":-57,"x_max":351,"o":"m 236 804 q 271 811 256 817 q 294 786 289 804 q 286 725 300 764 q 247 639 272 686 q 189 542 222 592 q 124 447 156 492 q 65 368 92 403 q 25 317 39 333 q 4 256 14 285 q -12 204 -6 228 q 48 290 18 250 q 105 359 78 331 q 157 401 132 388 q 203 404 182 414 q 227 376 222 396 q 224 332 232 357 q 201 289 217 311 q 165 249 186 267 q 119 222 144 232 q 64 214 93 213 q 84 185 71 199 q 118 167 97 171 q 147 166 129 164 q 191 184 165 168 q 249 235 217 200 q 322 332 282 269 q 331 340 325 338 q 342 340 336 343 q 344 319 351 335 q 265 213 301 251 q 198 157 228 175 q 147 137 168 139 q 111 138 125 135 q 58 167 78 144 q 32 215 39 190 q 8 181 18 197 q -31 126 -21 139 q -42 121 -35 121 q -47 122 -46 121 q -57 136 -57 125 q -42 208 -57 156 q -2 328 -26 260 q 53 474 22 397 q 117 618 85 550 q 181 737 150 686 q 236 804 213 788 m 60 408 q 133 511 94 454 q 202 622 171 568 q 251 718 233 675 q 265 779 269 761 q 261 783 264 783 q 253 779 257 783 q 212 730 235 767 q 163 642 189 693 q 110 530 136 590 q 60 408 83 469 m 53 244 q 101 248 78 240 q 142 270 124 256 q 175 303 161 285 q 194 340 189 322 q 199 358 197 344 q 192 376 201 372 q 164 370 181 381 q 128 340 147 360 q 90 295 110 321 q 53 244 71 269 z "},"a":{"ha":317,"x_min":-85,"x_max":346,"o":"m -82 182 q -64 240 -79 207 q -26 305 -49 274 q 24 358 -4 336 q 81 379 51 379 q 131 360 107 379 q 131 339 142 350 q 110 338 121 329 q 65 347 92 356 q 24 319 44 339 q -12 274 4 299 q -39 223 -28 249 q -51 178 -50 197 q -52 169 -53 172 q -51 163 -51 165 q -50 158 -51 160 q -39 159 -47 157 q -13 176 -31 161 q 32 219 4 190 q 101 300 60 249 q 139 342 131 335 q 157 346 147 350 q 167 331 167 342 q 163 314 165 324 q 153 285 160 304 q 142 253 149 274 q 128 211 135 232 q 119 172 122 190 q 121 149 117 154 q 135 155 125 149 q 167 179 146 161 q 220 231 188 197 q 300 317 253 264 l 317 335 q 338 336 325 346 q 338 317 346 328 l 321 299 q 190 162 236 203 q 118 121 143 121 q 108 122 111 121 q 90 171 83 132 q 117 271 96 210 q 24 169 67 211 q -47 128 -18 128 q -65 133 -58 128 q -78 149 -72 138 q -82 182 -85 160 z "},"b":{"ha":285,"x_min":-60,"x_max":322,"o":"m 258 817 q 285 826 274 826 q 303 822 296 825 q 311 815 307 819 q 318 800 315 810 q 307 742 322 781 q 265 657 292 704 q 203 559 238 610 q 135 461 168 508 q 73 377 101 414 q 29 321 44 340 q 13 278 21 299 q -1 239 6 258 q 40 303 19 272 q 82 356 61 333 q 123 388 103 378 q 164 394 143 399 q 188 379 175 392 q 204 332 201 367 q 198 275 206 306 q 176 217 190 244 q 142 167 161 189 q 99 138 122 146 q 74 133 89 133 q 40 142 58 133 q 3 175 22 150 q 0 183 0 181 q -26 144 -18 154 q -42 133 -35 133 l -47 133 q -60 151 -60 139 q -44 212 -60 163 q -1 329 -28 261 q 58 476 25 397 q 127 624 92 554 q 197 747 163 694 q 258 817 232 800 m 14 199 q 26 193 22 199 q 88 165 56 154 q 122 191 106 172 q 150 234 138 210 q 169 284 163 258 q 175 331 176 310 q 170 352 174 342 q 156 365 167 363 q 120 351 140 369 q 79 306 100 333 q 40 249 58 279 q 8 197 21 219 q 14 199 10 199 m 71 425 q 167 560 124 496 q 239 673 210 624 q 282 755 268 722 q 289 796 296 788 l 286 796 q 276 793 285 796 q 232 746 257 782 q 180 658 207 710 q 124 547 153 607 q 71 425 96 486 z "},"c":{"ha":261,"x_min":-51,"x_max":289,"o":"m -40 249 q -20 303 -33 276 q 12 350 -7 329 q 53 384 31 371 q 100 397 75 397 q 115 382 115 397 q 100 367 115 367 q 63 356 81 367 q 31 327 46 344 q 5 288 17 310 q -12 242 -7 265 q -17 190 -19 211 q -3 161 -14 168 q 25 154 11 154 q 97 180 57 154 q 171 238 136 206 q 231 298 206 269 q 260 333 256 326 q 269 340 263 339 q 281 338 275 340 q 282 319 289 332 q 257 288 282 318 q 194 221 232 257 q 110 155 156 185 q 24 125 65 125 q -17 135 1 125 q -45 177 -39 147 q -40 249 -51 207 z "},"i":{"ha":179,"x_min":-57,"x_max":208,"o":"m 32 385 q 41 391 35 390 q 53 389 47 392 q 56 368 65 381 q 22 310 38 342 q -6 250 6 279 q -21 197 -17 221 q -21 160 -25 172 q -15 151 -19 151 q 1 153 -10 150 q 35 173 13 156 q 90 226 57 190 q 172 326 124 263 l 179 335 q 199 338 188 346 q 204 324 208 331 q 196 310 200 317 q 73 167 122 213 q -10 121 24 121 q -50 150 -42 121 q -51 200 -57 169 q -32 263 -44 231 q -2 328 -19 296 q 32 385 15 361 m 83 507 q 104 507 93 517 q 106 486 115 499 q 90 465 96 476 q 90 458 93 463 q 76 447 88 447 q 74 448 75 447 q 72 449 74 449 q 61 460 64 450 q 63 474 60 467 q 69 488 65 481 q 78 500 74 494 q 83 507 82 506 z "},"N":{"ha":506,"x_min":-125,"x_max":569,"o":"m -122 39 q -103 81 -117 50 q -71 157 -90 113 q 57 456 4 335 q 146 654 110 576 q 203 773 182 732 q 238 832 225 814 q 257 852 250 850 q 269 851 264 854 q 281 839 278 849 q 283 802 285 829 q 274 724 281 775 q 254 585 267 672 q 235 452 246 528 q 217 307 225 376 q 209 186 210 238 q 219 126 208 135 q 236 131 225 124 q 303 203 264 147 q 385 353 343 260 q 468 576 428 447 q 538 867 508 706 q 556 879 540 882 q 567 861 569 876 q 494 563 536 694 q 409 335 453 431 q 324 181 365 239 q 250 106 282 122 q 210 99 228 92 q 185 136 192 106 q 181 226 178 167 q 195 375 183 285 q 225 590 207 465 q 242 709 233 650 q 253 801 250 768 q 215 729 238 776 q 165 622 192 682 q 108 496 138 563 q 50 365 78 429 q -3 243 22 300 q -44 146 -28 186 q -77 69 -64 100 q -96 26 -90 38 q -108 18 -99 18 q -115 19 -112 18 q -123 28 -121 22 q -122 39 -125 33 z "},"M":{"ha":549,"x_min":-64,"x_max":628,"o":"m -62 94 q -51 128 -62 96 q -19 211 -39 160 q 27 328 1 263 q 81 463 53 394 q 137 599 108 532 q 189 720 165 667 q 231 809 213 774 q 258 850 250 844 q 272 851 263 854 q 284 839 281 849 q 285 790 288 829 q 272 674 282 751 q 242 457 263 596 q 227 358 235 407 q 215 274 219 308 q 283 378 242 314 q 364 510 324 443 q 463 668 422 604 q 529 773 503 732 q 572 836 556 814 q 596 868 588 858 q 609 879 604 878 q 618 879 614 881 q 626 871 624 876 q 627 858 628 868 q 619 822 626 849 q 594 747 611 796 q 547 618 576 699 q 474 419 518 538 q 365 133 429 300 q 333 50 346 85 q 319 11 321 15 q 313 3 318 4 q 301 1 307 1 q 290 19 288 6 q 293 27 290 21 q 301 47 296 33 q 315 83 306 60 q 338 143 324 107 q 372 233 351 181 q 415 347 392 286 q 461 471 438 407 q 507 594 485 535 q 548 706 529 654 q 579 796 567 758 q 538 733 561 769 q 490 656 515 696 q 438 574 464 615 q 389 494 413 532 q 285 328 322 386 q 230 242 249 269 q 206 213 211 215 q 193 211 200 210 q 184 217 188 213 q 183 246 181 222 q 192 319 185 269 q 211 461 199 369 q 225 549 218 501 q 238 641 232 596 q 249 726 244 686 q 256 792 254 765 q 210 693 238 757 q 150 554 182 629 q 86 400 118 479 q 28 255 54 321 q -15 144 3 189 q -33 90 -32 99 q -49 78 -33 75 q -60 83 -56 78 q -62 94 -64 88 z "},"O":{"ha":413,"x_min":-60,"x_max":444,"o":"m -32 283 q -1 405 -22 340 q 51 534 21 469 q 117 659 81 599 q 194 767 154 719 q 278 844 235 814 q 363 879 321 874 q 379 867 376 879 q 376 855 381 860 q 365 850 372 850 q 287 816 326 846 q 210 740 247 786 q 138 637 172 694 q 76 517 104 579 q 27 392 47 454 q -3 278 7 331 q -9 176 -14 215 q 17 125 -4 136 q 56 117 36 117 q 119 136 86 117 q 186 188 153 156 q 250 264 219 221 q 307 354 281 307 q 370 492 344 421 q 405 627 396 564 q 403 739 414 690 q 357 808 393 788 q 350 817 351 811 q 351 829 349 824 q 360 836 354 835 q 372 835 367 838 q 430 755 415 808 q 436 633 444 701 q 401 489 428 565 q 333 339 374 413 q 275 247 307 292 q 207 166 243 201 q 132 108 171 131 q 56 86 93 86 q 3 99 28 86 q -32 283 -60 131 z "},"Q":{"ha":440,"x_min":-31,"x_max":467,"o":"m -18 290 q 33 481 -6 381 q 126 667 71 582 q 250 808 181 753 q 396 864 319 864 q 411 850 411 864 q 396 835 411 835 q 306 810 350 835 q 222 742 261 785 q 147 644 182 700 q 85 528 113 589 q 38 404 57 467 q 11 286 19 342 q 9 169 0 215 q 44 115 18 124 q 75 111 60 111 q 186 163 129 111 q 177 222 179 194 q 174 264 175 249 l 174 271 q 188 286 174 286 q 199 283 194 288 q 203 272 203 279 l 204 267 q 213 186 204 236 q 278 269 247 222 q 336 369 310 317 q 382 475 363 421 q 413 579 401 529 q 428 672 425 629 q 425 743 432 714 q 392 788 417 782 q 383 795 386 790 q 382 806 379 800 q 400 817 386 819 q 431 798 415 813 q 454 750 446 783 q 452 615 467 696 q 404 449 438 535 q 322 283 371 363 q 219 151 274 203 q 243 92 228 119 q 285 53 258 64 q 293 33 299 49 q 279 24 289 24 q 276 24 278 24 q 274 25 275 25 q 224 67 242 38 q 194 131 206 96 q 75 82 133 82 q 36 88 53 82 q -17 151 -4 99 q -18 290 -31 203 z "},"P":{"ha":475,"x_min":-82,"x_max":556,"o":"m 42 369 q 26 380 35 375 q 11 392 18 385 q 8 413 -1 400 q 29 415 17 424 q 42 406 36 410 q 54 397 47 401 q 121 547 88 472 q 183 685 154 622 q 233 794 213 749 q 261 856 254 840 q 269 863 264 861 q 282 863 275 865 q 289 843 294 857 q 242 742 268 797 q 190 627 217 688 q 135 504 163 567 q 81 382 107 442 q 87 379 83 381 q 93 376 90 378 q 181 526 135 451 q 274 658 226 600 q 372 753 322 717 q 467 790 421 790 q 529 765 508 790 q 553 700 550 740 q 540 610 556 660 q 497 513 525 561 q 427 422 468 464 q 338 353 386 379 q 278 328 311 338 q 207 318 246 318 q 159 322 183 318 q 107 338 135 326 q 57 244 79 289 q 17 165 35 200 q -16 101 -3 126 q -37 62 -29 76 q -51 42 -46 47 q -62 36 -57 36 q -69 39 -64 36 q -79 47 -76 42 q -73 83 -82 54 q -47 155 -64 111 q -8 254 -31 199 q 42 369 15 310 m 324 379 q 410 447 372 406 q 474 533 449 488 q 513 622 500 578 q 524 699 525 667 q 508 744 521 728 q 465 760 496 760 q 382 724 426 760 q 292 632 338 689 q 203 505 247 575 q 121 364 160 435 q 206 349 167 349 q 324 379 267 349 m 4 207 q 40 275 21 239 q 79 350 58 311 l 68 354 q 34 276 50 314 q 4 207 18 239 z "},"R":{"ha":554,"x_min":-72,"x_max":625,"o":"m 288 860 q 308 860 299 871 q 308 839 321 850 q 256 767 285 815 q 196 657 226 718 q 134 525 165 596 q 75 385 103 454 q 24 254 47 317 q -15 144 1 192 q -12 150 -12 147 q 87 315 36 233 q 188 469 138 396 q 286 603 238 542 q 381 708 335 665 q 468 773 426 751 q 546 788 510 794 q 617 724 601 778 q 616 647 625 690 q 584 558 607 604 q 526 466 561 511 q 450 385 492 421 q 258 301 354 301 q 201 310 229 301 q 210 227 201 271 q 238 147 218 183 q 289 86 257 110 q 369 63 321 63 q 433 79 404 63 q 453 74 446 86 q 449 54 460 61 q 368 32 413 32 q 282 56 322 32 q 245 85 265 65 q 208 137 225 104 q 180 217 190 169 q 172 332 169 265 q 179 344 172 340 q 193 344 186 349 q 226 335 210 338 q 258 332 243 332 q 310 339 285 332 q 357 357 335 346 q 398 381 379 368 q 431 407 417 394 q 501 482 469 440 q 555 566 533 524 q 585 648 576 608 q 588 715 594 688 q 540 758 576 753 q 460 734 506 765 q 365 649 414 703 q 264 524 315 594 q 166 381 213 453 q 80 244 119 310 q 14 135 40 179 q -19 79 -7 99 q -37 51 -31 60 q -46 40 -43 42 q -53 38 -49 38 q -65 40 -60 35 q -72 53 -69 43 q -55 117 -72 63 q -8 251 -37 172 q 58 423 21 331 q 136 602 96 515 q 216 758 176 689 q 288 860 256 828 z "},"S":{"ha":472,"x_min":-49,"x_max":457,"o":"m -35 497 q 23 610 -21 546 q 124 733 67 675 q 244 832 181 792 q 361 872 307 872 q 388 867 374 872 q 415 852 403 863 q 438 822 428 842 q 454 774 449 803 q 442 756 457 758 q 425 768 428 753 q 404 820 418 797 q 356 843 390 843 q 292 826 328 843 q 220 781 257 810 q 147 717 183 753 q 80 641 111 681 q 26 562 49 601 q -7 489 3 522 q 4 422 -21 438 q 61 402 24 411 q 139 385 99 393 q 240 360 193 372 q 304 328 286 347 q 322 264 329 303 q 365 267 351 267 q 397 264 378 267 q 410 247 413 261 q 393 235 407 232 q 375 236 383 236 q 358 236 367 236 q 339 235 350 236 q 313 233 328 235 q 268 164 300 199 q 196 101 236 129 q 113 56 156 74 q 36 39 71 39 q 5 42 19 39 q -24 56 -10 46 q -37 99 -49 72 q 0 144 -29 119 q 74 192 29 169 q 176 233 119 215 q 292 260 232 251 q 283 307 299 290 q 224 333 269 322 q 132 356 179 344 q 50 374 88 365 q -11 397 13 383 q -37 428 -26 406 q -35 497 -49 450 m -8 81 q 36 69 8 69 q 103 84 67 69 q 172 122 139 99 q 233 172 206 144 q 276 228 261 200 q 173 202 222 219 q 85 165 124 185 q 22 125 47 146 q -10 89 -4 104 q -8 81 -12 83 z "},"U":{"ha":513,"x_min":-90,"x_max":586,"o":"m 186 808 q 206 815 192 821 q 214 806 213 813 q 213 794 215 800 q 168 711 196 765 q 108 592 140 657 q 44 457 76 526 q -11 326 13 388 q -47 218 -35 265 q -51 151 -58 171 q -51 149 -51 150 q -50 147 -50 149 q -49 146 -49 146 q 482 771 19 121 q 529 835 513 813 q 554 868 546 858 q 567 878 563 878 q 576 876 571 879 q 583 869 581 874 q 583 858 586 864 q 560 799 582 851 q 494 643 539 747 q 447 530 474 593 q 394 401 421 467 q 341 274 367 336 q 295 160 315 211 q 263 74 275 108 q 250 32 250 40 q 239 14 253 18 q 228 16 233 14 q 221 25 222 18 q 226 58 219 32 q 260 151 233 83 q 335 340 286 219 q 467 654 385 460 q 490 710 479 682 q 513 761 501 738 q 507 753 510 758 q 308 481 399 603 q 144 274 217 358 q 20 149 72 190 q -60 118 -32 108 q -70 125 -64 121 q -81 140 -76 129 q -74 228 -90 168 q -29 361 -58 288 q 37 513 0 435 q 107 657 74 592 q 163 765 140 722 q 186 808 186 807 z "},"T":{"ha":318,"x_min":-18,"x_max":581,"o":"m -17 44 q 1 122 -14 72 q 40 235 17 172 q 93 367 64 297 q 152 507 122 438 q 210 640 182 576 q 260 751 239 703 q 281 799 272 779 q 294 831 290 819 q 151 817 224 825 q 21 797 79 808 q 17 796 19 796 q 3 808 6 796 q 14 826 0 821 q 97 840 46 833 q 207 853 149 847 q 325 863 265 858 q 436 867 385 867 q 528 861 490 867 q 574 842 567 856 q 568 822 581 829 q 547 828 554 815 q 516 835 540 833 q 454 838 492 838 q 324 833 397 838 q 324 822 325 828 q 310 792 319 813 q 288 739 301 771 q 240 633 268 694 q 183 503 213 572 q 124 365 153 435 q 71 231 94 294 q 31 119 47 168 q 13 43 15 69 q -3 29 13 29 q -14 34 -10 29 q -17 44 -18 39 z "},"V":{"ha":319,"x_min":-51,"x_max":417,"o":"m 143 850 q 163 858 147 864 q 170 850 168 856 q 169 839 172 844 q 127 727 151 796 q 79 581 103 658 q 34 422 56 503 q -1 276 13 342 q -19 165 -15 210 q -11 113 -22 119 q -6 114 -8 113 q 13 125 3 117 q 78 194 40 147 q 155 305 115 242 q 234 443 194 368 q 306 593 274 518 q 359 739 338 668 q 385 865 381 810 q 390 875 386 871 q 401 878 394 879 q 414 863 417 878 q 388 733 410 806 q 333 583 365 660 q 260 429 300 506 q 178 288 219 353 q 98 173 136 222 q 31 101 60 124 q 9 88 19 92 q -17 83 -1 83 q -28 88 -22 85 q -39 101 -35 92 q -46 182 -51 125 q -24 314 -40 239 q 17 472 -7 389 q 65 631 40 556 q 110 766 89 707 q 143 850 132 825 z "},"W":{"ha":626,"x_min":-57,"x_max":665,"o":"m 232 871 q 241 878 235 876 q 253 876 247 879 q 257 856 264 868 q 222 790 249 842 q 163 668 196 739 q 94 515 129 597 q 31 359 58 433 q -12 226 3 285 q -19 140 -28 167 q -14 132 -15 133 q 18 142 -4 128 q 81 206 40 157 q 183 344 121 254 q 338 582 246 435 q 365 625 356 610 q 381 647 375 640 q 390 655 386 654 q 397 654 393 656 q 406 650 403 653 q 408 638 408 647 q 402 610 407 629 q 389 557 397 592 q 333 332 353 419 q 307 192 314 244 q 302 119 300 140 q 311 94 304 99 q 326 100 313 93 q 380 160 349 117 q 446 263 411 203 q 515 394 481 322 q 576 541 549 467 q 619 687 603 615 q 636 817 636 758 q 650 831 636 831 q 665 817 665 831 q 648 685 665 758 q 603 533 631 611 q 540 380 575 456 q 468 241 504 304 q 397 133 432 178 q 338 72 363 88 q 313 64 324 64 q 297 68 304 64 q 280 214 260 88 q 357 557 300 340 q 230 358 289 447 q 122 210 171 269 q 36 122 74 150 q -26 106 -1 94 q -38 114 -32 108 q -47 132 -44 119 q -42 226 -57 163 q 3 369 -26 290 q 69 531 32 447 q 140 688 106 615 q 199 810 174 760 q 232 871 225 860 z "},"Y":{"ha":499,"x_min":-51,"x_max":540,"o":"m -51 79 q -36 94 -51 94 q 261 240 132 94 q 363 387 319 306 q 435 547 406 468 q 483 694 465 626 q 506 804 500 763 q 492 784 499 794 q 478 763 485 774 q 355 590 411 667 q 251 459 299 513 q 165 376 203 406 q 99 347 128 347 q 67 358 79 347 q 51 389 56 369 q 51 455 46 414 q 67 544 56 496 q 97 643 79 592 q 135 741 115 694 q 175 826 154 788 q 213 885 196 864 q 233 886 222 894 q 235 865 244 878 q 197 807 217 844 q 159 725 178 769 q 124 631 140 681 q 96 537 107 582 q 80 455 85 492 q 81 396 75 418 q 84 385 82 390 q 90 378 86 381 q 135 390 107 371 q 197 445 163 410 q 268 528 231 481 q 340 622 306 575 q 405 710 375 668 q 453 779 435 753 q 489 830 476 813 q 508 856 501 847 q 517 865 514 864 q 525 867 521 867 q 534 864 528 867 q 540 846 540 861 q 528 761 540 826 q 489 609 517 696 q 417 426 461 522 q 310 250 374 331 q 160 117 246 169 q -36 64 74 64 q -51 79 -51 64 z "},"Z":{"ha":511,"x_min":-106,"x_max":467,"o":"m 176 496 q 260 590 213 536 q 349 694 308 644 q 414 783 389 744 q 431 829 439 821 q 375 843 418 843 q 305 837 344 843 q 226 821 265 831 q 152 799 186 811 q 97 776 118 788 q 78 783 85 769 q 83 803 71 796 q 132 823 99 811 q 206 846 165 835 q 291 865 247 857 q 372 872 335 872 q 421 867 400 872 q 453 850 442 863 q 458 807 467 835 q 417 734 449 779 q 331 625 385 689 q 199 475 276 561 q 106 371 156 428 q 15 263 57 314 q -51 172 -26 211 q -68 119 -75 132 q -42 108 -61 108 q -2 115 -25 108 q 48 133 21 122 q 103 156 75 143 q 158 181 132 168 q 233 213 196 197 q 301 239 269 228 q 361 255 333 250 q 410 256 389 260 q 421 238 424 251 q 403 226 415 222 q 360 225 386 231 q 302 208 333 219 q 238 183 271 197 q 171 153 204 168 q 51 101 107 124 q -42 79 -4 79 q -94 106 -79 79 q -91 158 -106 125 q -40 241 -76 192 q 51 353 -4 290 q 176 496 107 417 z "},"X":{"ha":518,"x_min":-119,"x_max":556,"o":"m -111 78 q -83 113 -107 83 q -24 190 -60 143 q 60 295 13 236 q 158 417 107 354 q 176 572 164 494 q 199 711 188 649 q 221 814 211 774 q 231 856 231 854 q 249 867 233 869 q 260 849 263 863 q 244 781 253 824 q 225 686 235 739 q 206 574 215 633 q 192 457 197 515 q 292 578 242 518 q 386 689 342 638 q 467 778 431 740 q 525 835 503 817 q 546 833 538 844 q 544 811 556 821 q 483 751 522 793 q 395 654 443 710 q 294 535 347 599 q 188 406 240 471 q 184 312 183 357 q 190 231 185 267 q 206 169 194 194 q 235 133 217 144 q 258 128 244 128 q 421 232 317 128 q 442 232 432 243 q 442 211 453 222 q 258 97 329 97 q 221 107 236 97 q 187 144 200 119 q 166 202 174 168 q 156 278 158 236 q 156 365 154 319 q 69 258 110 310 q -5 166 28 207 q -59 97 -37 125 q -87 61 -81 69 q -99 54 -92 54 q -108 57 -103 54 q -111 78 -119 68 z "},"E":{"ha":489,"x_min":-58,"x_max":467,"o":"m -54 113 q -24 181 -50 144 q 39 254 1 218 q 120 322 76 290 q 203 374 164 353 q 188 387 196 381 q 174 400 181 393 q 136 433 156 415 q 101 468 117 450 q 78 504 86 486 q 72 540 69 522 q 94 596 76 564 q 140 662 113 628 q 200 729 167 696 q 268 788 233 763 q 337 829 303 814 q 397 842 371 844 q 444 818 421 840 q 467 731 467 796 q 451 715 467 715 q 438 731 438 715 q 394 811 438 808 q 342 800 372 814 q 281 762 313 786 q 219 706 250 738 q 163 644 188 675 q 121 584 138 613 q 101 536 104 556 q 108 510 100 525 q 131 480 117 496 q 163 449 146 464 q 193 422 179 435 q 229 390 218 401 q 238 368 240 379 q 228 354 238 357 q 149 306 192 336 q 69 240 107 275 q 6 171 32 206 q -24 108 -21 136 q -11 75 -28 88 q 32 64 4 64 q 103 76 61 64 q 191 110 144 88 q 285 167 238 133 q 375 246 333 201 q 385 251 379 251 q 396 247 392 251 q 396 226 407 238 q 309 149 357 185 q 212 89 261 114 q 115 49 163 64 q 32 35 68 35 q -31 53 -8 35 q -54 113 -58 74 z "},"F":{"ha":413,"x_min":-53,"x_max":663,"o":"m 99 451 q 78 447 88 449 q 63 444 69 446 q 28 438 32 438 q 25 436 25 436 q 10 450 13 436 q 13 461 8 457 q 22 467 17 465 q 56 474 28 467 q 85 479 71 476 q 113 485 99 482 q 172 617 140 546 q 242 772 203 688 q 251 793 249 785 q 256 804 254 801 q 264 812 258 810 q 275 811 269 814 q 283 792 289 807 q 278 781 282 789 q 268 760 275 774 q 203 616 232 682 q 149 492 174 550 q 242 507 197 501 q 324 513 288 513 q 392 501 371 513 q 399 482 404 494 q 390 474 396 475 q 378 475 383 472 q 324 483 361 483 q 232 476 283 483 q 135 458 181 468 q 49 255 81 333 q 1 131 17 176 q -19 67 -15 86 q -22 44 -24 49 q -19 33 -18 39 q -26 25 -21 28 q -33 22 -28 22 q -47 29 -43 22 q -51 38 -50 32 q -51 58 -53 43 q -40 99 -49 72 q -15 172 -32 126 q 29 286 1 218 q 99 451 57 354 m 36 783 q 130 817 72 801 q 255 842 188 832 q 391 859 322 853 q 515 865 460 865 q 586 863 556 865 q 633 853 617 860 q 657 832 653 847 q 647 813 663 818 q 629 822 632 807 q 596 833 624 829 q 528 836 568 836 q 408 831 476 836 q 273 815 340 825 q 146 791 206 806 q 50 757 86 776 q 43 754 44 754 q 29 763 33 754 q 36 783 24 776 z "},"D":{"ha":478,"x_min":-57,"x_max":522,"o":"m 263 847 q 272 854 265 853 q 283 851 278 856 q 288 832 294 844 q 229 725 263 792 q 160 582 196 658 q 92 428 125 506 q 32 285 58 350 q 140 480 85 385 q 247 648 194 575 q 351 763 300 721 q 446 799 401 806 q 503 756 483 792 q 519 660 522 721 q 500 549 518 611 q 449 420 482 486 q 369 291 417 354 q 261 176 322 228 q 125 90 200 125 q -37 49 50 56 l -39 49 q -54 63 -54 49 q -51 74 -56 69 q -40 79 -47 78 q 114 119 43 86 q 243 201 185 151 q 347 310 301 250 q 423 432 392 369 q 471 554 454 494 q 489 661 488 614 q 488 690 489 672 q 483 724 488 707 q 468 753 478 740 q 440 769 458 767 q 377 748 413 775 q 304 674 342 721 q 228 568 267 628 q 153 447 189 508 q 88 327 118 385 q 35 228 57 269 q 1 163 14 186 q -18 129 -11 140 q -29 116 -25 118 q -39 114 -33 114 q -53 122 -49 114 q -40 179 -57 131 q 5 299 -24 228 q 71 454 33 371 q 144 615 108 538 q 213 756 181 693 q 263 847 244 818 z "},"B":{"ha":506,"x_min":-150,"x_max":582,"o":"m -135 29 q 96 52 -1 29 q 257 113 193 75 q 352 197 321 150 q 383 290 383 243 q 355 368 385 338 q 278 400 325 399 q 263 415 263 400 q 276 429 263 429 q 360 466 313 432 q 449 547 407 500 q 522 641 492 593 q 551 719 551 689 q 547 740 553 735 q 525 749 540 746 q 438 723 483 753 q 345 642 392 693 q 254 526 299 592 q 170 395 210 461 q 99 269 131 329 q 46 168 67 208 q 19 119 28 135 q 7 100 11 104 q -3 94 4 94 q -15 97 -10 93 q -13 134 -22 103 q 14 214 -4 165 q 58 324 32 263 q 113 450 85 386 q 171 576 142 514 q 225 688 200 638 q 267 773 250 739 q 290 815 285 807 q 311 818 300 828 q 317 809 317 815 q 315 797 318 803 q 269 717 297 772 q 210 594 242 663 q 145 449 178 525 q 85 307 113 374 q 146 415 113 358 q 216 524 179 471 q 292 626 253 578 q 371 709 331 674 q 451 763 411 744 q 528 778 490 782 q 568 760 554 775 q 582 719 582 744 q 558 645 581 689 q 499 558 535 601 q 421 476 464 514 q 336 417 378 438 q 393 368 372 401 q 414 290 414 335 q 381 185 414 238 q 280 92 347 133 q 109 24 213 50 q -135 -1 6 -1 q -150 14 -150 -1 q -135 29 -150 29 z "},"A":{"ha":497,"x_min":-82,"x_max":504,"o":"m -75 97 q -65 115 -75 99 q -39 158 -56 131 q 1 224 -22 186 q 51 306 25 263 q -20 297 10 300 q -57 290 -50 293 q -69 292 -64 290 q -75 301 -74 294 q -67 319 -81 314 q -26 324 -65 319 q 71 336 13 329 q 150 460 108 396 q 234 587 192 525 q 317 703 276 649 q 391 798 357 758 q 451 858 425 838 q 489 872 476 879 q 503 840 501 865 q 497 777 504 815 q 474 690 489 739 q 440 585 460 640 q 397 471 419 529 q 350 357 374 413 q 405 355 382 357 q 435 346 428 353 q 438 325 446 336 q 417 322 426 313 q 390 328 410 326 q 339 328 369 329 q 290 215 314 268 q 248 123 267 163 q 218 59 229 83 q 207 33 207 35 q 194 25 203 25 q 190 26 192 25 q 188 26 189 26 q 180 35 182 29 q 181 47 178 40 q 241 176 208 104 q 307 326 274 247 q 201 319 258 324 q 90 310 143 315 q 5 173 42 233 q -49 83 -32 113 q -69 78 -56 71 q -75 97 -82 85 m 318 356 q 384 520 353 439 q 438 669 415 601 q 471 783 460 736 q 475 844 482 831 q 418 790 458 839 q 327 668 378 740 q 219 509 276 596 q 110 340 163 422 q 217 350 163 346 q 318 356 272 354 z "},"C":{"ha":497,"x_min":-37,"x_max":460,"o":"m 10 383 q 63 490 32 435 q 131 597 94 544 q 209 694 168 649 q 292 770 250 739 q 373 816 333 801 q 446 821 413 831 q 457 803 460 817 q 438 792 453 789 q 344 768 399 803 q 232 672 289 733 q 123 530 175 610 q 38 371 71 450 q -5 206 -4 272 q 35 117 -6 140 q 101 101 61 101 q 228 134 154 101 q 382 244 301 167 q 403 244 393 256 q 403 224 414 235 q 247 110 325 149 q 101 71 168 71 q 19 90 53 71 q -35 196 -33 121 q 10 383 -37 271 z "},"I":{"ha":233,"x_min":-156,"x_max":385,"o":"m -142 83 q -98 91 -121 88 q -54 97 -75 94 q -28 178 -50 119 q 24 315 -7 238 q 89 480 54 393 q 155 642 124 567 q 210 772 186 717 q 239 840 233 826 q 150 832 200 839 q 140 833 144 832 q 131 847 131 836 q 139 860 131 854 q 147 863 143 861 q 240 870 201 868 q 304 872 278 872 q 347 870 332 872 q 370 865 363 868 q 380 858 378 863 q 382 851 382 854 q 381 840 385 844 q 371 833 378 835 q 368 832 369 832 q 356 839 360 832 q 267 842 339 846 q 267 831 269 836 q 239 769 261 822 q 186 642 217 717 q 120 479 156 567 q 54 313 85 392 q 1 176 24 235 q -25 99 -21 118 q 40 82 24 101 q 38 61 50 72 q 17 64 26 53 q -15 69 11 69 q -67 65 -36 69 q -135 54 -97 61 l -137 54 q -153 65 -150 54 q -142 83 -156 81 z "},"J":{"ha":431,"x_min":-54,"x_max":513,"o":"m -43 188 q -24 179 -29 193 q 79 67 21 63 q 142 100 110 69 q 206 179 174 131 q 269 291 238 228 q 328 422 300 354 q 383 556 357 489 q 428 680 408 622 q 460 781 447 738 q 479 843 474 824 q 447 844 468 844 q 404 841 426 843 q 360 835 382 839 q 326 824 339 831 q 315 823 321 821 q 307 832 310 825 q 306 843 304 838 q 314 851 308 849 q 342 860 325 856 q 378 867 358 864 q 417 872 397 871 q 456 874 438 874 q 504 867 493 874 q 513 853 513 861 q 503 817 513 851 q 474 728 493 783 q 431 601 456 672 q 375 456 406 531 q 310 310 344 382 q 240 179 276 238 q 165 83 203 121 q 90 38 128 44 q 74 36 85 36 q -51 168 -1 36 q -52 179 -54 174 q -43 188 -50 185 z "},"K":{"ha":613,"x_min":-64,"x_max":585,"o":"m -61 94 q -31 196 -56 128 q 26 347 -7 264 q 98 517 60 429 q 168 676 136 604 q 221 796 200 749 q 243 844 242 843 q 264 851 250 856 q 271 832 276 844 q 253 793 271 831 q 210 697 236 756 q 151 563 183 638 q 88 414 119 489 q 160 455 117 426 q 251 522 203 483 q 347 603 299 560 q 438 685 396 646 q 511 758 481 725 q 553 810 542 792 q 572 814 560 821 q 578 794 585 807 q 533 740 565 775 q 456 662 500 704 q 360 574 413 619 q 258 490 308 529 q 164 422 208 451 q 89 383 119 393 q 92 350 88 374 q 108 297 96 326 q 139 238 119 268 q 188 186 158 208 q 294 150 236 150 q 515 243 390 150 q 536 240 528 253 q 533 219 546 228 q 399 142 458 163 q 294 121 340 121 q 207 140 247 121 q 137 192 167 160 q 88 265 107 224 q 61 351 68 307 q -1 194 25 264 q -32 90 -26 124 q -49 78 -33 78 q -61 94 -64 81 z "},"L":{"ha":444,"x_min":-72,"x_max":369,"o":"m 265 861 q 286 865 274 872 q 292 856 292 863 q 290 844 293 850 q 262 793 282 832 q 215 698 242 754 q 158 573 189 642 q 98 434 128 504 q 41 296 68 364 q -6 172 14 228 q -34 79 -25 117 q -36 31 -43 42 q -10 34 -28 26 q 31 56 8 42 q 80 90 54 71 q 129 126 106 108 q 190 172 160 150 q 250 212 221 194 q 306 240 279 229 q 354 251 332 251 q 369 236 369 251 q 354 221 369 221 q 311 210 336 221 q 259 183 286 200 q 203 144 232 165 q 147 103 175 124 q 42 28 85 57 q -31 0 -1 0 q -51 6 -37 0 q -58 13 -54 8 q -65 25 -62 17 q -52 122 -72 51 q 3 281 -32 192 q 82 470 39 371 q 164 653 125 569 q 231 795 203 738 q 265 861 260 853 z "},"H":{"ha":499,"x_min":-79,"x_max":542,"o":"m -64 375 q -42 376 -60 375 q -3 381 -25 378 q 33 385 15 383 q 67 389 50 386 q 132 545 94 458 q 215 740 169 632 q 245 809 233 781 q 260 843 257 838 q 278 851 265 857 q 288 832 293 847 q 243 729 285 825 q 215 662 231 700 q 180 579 199 624 q 140 487 161 535 q 100 392 119 439 q 217 402 163 399 q 318 407 272 406 q 388 569 353 489 q 450 711 422 649 q 495 813 478 774 q 513 854 513 853 q 533 861 519 867 q 540 852 539 858 q 539 840 542 846 q 513 786 532 828 q 469 685 494 744 q 413 554 443 626 q 350 407 382 482 q 410 403 385 406 q 446 393 435 400 q 450 372 457 385 q 431 367 443 360 q 396 376 419 374 q 338 378 372 378 q 281 240 308 307 q 234 120 254 174 q 202 31 214 67 q 190 -14 190 -6 q 179 -32 193 -29 q 177 -33 178 -32 q 175 -33 176 -33 q 161 -21 164 -33 q 169 25 158 -11 q 201 115 181 61 q 248 237 221 169 q 306 376 275 304 q 197 370 254 375 q 88 361 139 365 q 50 267 68 313 q 19 187 32 222 q -1 127 6 151 q -8 96 -8 103 q -18 78 -4 83 q -30 80 -25 78 q -37 89 -35 82 q -20 164 -42 101 q 54 357 1 226 q 26 354 39 356 q 1 351 13 353 q -43 347 -28 349 q -64 346 -58 346 q -79 360 -79 346 q -64 375 -79 375 z "},"G":{"ha":531,"x_min":-43,"x_max":490,"o":"m -40 -60 q -25 -47 -40 -44 q 281 96 147 -65 q 357 212 325 150 q 410 332 389 274 q 443 439 432 390 q 457 514 454 488 q 426 475 444 499 q 389 428 408 451 q 290 301 339 361 q 198 199 242 242 q 117 134 154 156 q 50 122 79 113 q 20 146 35 126 q 6 213 6 165 q 19 314 6 256 q 56 435 32 372 q 112 562 79 499 q 182 678 144 625 q 260 772 219 732 q 343 825 301 811 q 385 832 361 832 q 436 819 411 832 q 482 779 461 807 q 485 767 485 774 q 479 758 485 761 q 458 760 468 750 q 383 803 425 803 q 353 797 368 803 q 278 747 317 785 q 205 658 240 710 q 138 546 169 607 q 84 424 107 485 q 48 308 61 364 q 35 213 35 253 q 40 174 35 193 q 60 150 44 156 q 122 172 83 142 q 205 249 161 201 q 291 350 249 296 q 365 446 333 404 q 410 504 393 482 q 439 538 428 526 q 457 553 450 550 q 469 557 464 557 q 482 550 479 557 q 485 495 490 538 q 463 394 479 453 q 417 269 446 336 q 350 142 389 203 q 194 -23 279 33 q 13 -79 110 -79 q -8 -78 1 -79 q -28 -76 -17 -78 q -40 -60 -43 -74 z "},",":{"ha":128,"x_min":17,"x_max":93,"o":"m 28 86 q 54 120 44 96 q 64 154 64 144 q 78 169 64 169 q 93 154 93 169 q 88 129 93 146 q 75 97 83 113 q 57 70 67 82 q 36 58 47 58 q 24 65 28 58 q 28 86 17 79 z "},".":{"ha":117,"x_min":42,"x_max":92,"o":"m 42 101 q 44 111 42 104 q 50 126 46 118 q 60 142 54 135 q 71 151 65 150 q 83 151 78 154 q 89 142 88 147 q 83 125 92 131 q 76 112 81 122 q 71 99 72 101 q 57 85 71 85 q 46 90 50 85 q 42 101 42 94 z "},"":{"ha":440,"x_min":-239,"x_max":472,"o":"m -101 144 q -122 181 -119 161 q -111 206 -125 197 q -79 204 -99 214 q -74 200 -76 203 q -23 297 -49 250 q 27 383 3 343 q 72 452 51 422 q 108 499 93 482 q 129 516 118 508 q 153 519 140 524 q 171 499 169 515 q 156 456 174 482 q 114 401 139 429 q 63 351 89 374 q 24 317 38 328 q -15 249 4 285 q -53 175 -33 213 q -40 144 -44 164 q 55 174 -8 139 q 200 308 118 208 q 269 422 236 372 q 326 496 303 472 q 349 515 336 507 q 372 519 361 524 q 392 499 390 515 q 377 456 394 482 q 335 402 360 429 q 284 351 310 375 q 244 317 258 328 q 236 305 240 310 q 228 294 232 300 q 197 239 213 267 q 165 181 181 211 q 182 144 175 167 q 225 151 199 143 q 285 181 251 158 q 358 240 318 203 q 440 335 397 278 q 461 338 451 346 q 461 318 472 329 q 309 162 379 210 q 190 114 239 114 l 189 114 q 191 61 192 89 q 187 5 190 33 q 178 -51 183 -24 q 164 -101 172 -78 q 145 -149 156 -125 q 119 -193 135 -174 q 83 -226 104 -212 q 35 -239 63 -239 q 4 -212 13 -235 q 3 -154 -3 -192 q 25 -69 10 -117 q 64 35 40 -21 q 115 147 88 90 q 101 168 103 160 q 26 126 61 139 q -35 114 -8 113 q -37 -11 -28 58 q -67 -137 -47 -81 q -123 -252 -90 -212 q -192 -292 -156 -292 q -200 -290 -197 -292 q -231 -264 -222 -289 q -231 -199 -239 -242 q -205 -102 -224 -157 q -160 17 -186 -47 q -101 144 -133 81 m -206 -242 q -196 -261 -203 -261 q -144 -229 -171 -264 q -94 -128 -117 -194 q -65 7 -72 -61 q -65 121 -58 75 q -71 124 -68 122 q -76 126 -74 125 q -128 15 -104 71 q -169 -89 -151 -40 q -197 -177 -187 -137 q -206 -242 -207 -217 m 31 -189 q 34 -206 31 -204 q 39 -210 38 -208 q 91 -182 65 -212 q 136 -93 117 -151 q 160 22 156 -35 q 157 119 165 79 q 148 124 153 122 q 139 129 143 126 q 95 33 115 81 q 60 -56 75 -14 q 37 -131 44 -97 q 31 -189 29 -165 m 361 489 q 331 457 350 482 q 289 396 313 432 q 337 449 315 424 q 361 489 358 475 m 76 404 q 119 453 100 429 q 142 489 138 476 q 76 404 119 474 m -87 174 q -89 174 -89 174 q -90 175 -89 175 q -89 174 -89 175 q -87 174 -89 174 m 143 203 l 143 203 l 143 203 z "},"":{"ha":425,"x_min":-87,"x_max":508,"o":"m 11 183 q 28 194 19 189 q 47 206 38 199 q -4 268 36 244 q -17 310 -28 283 q 4 338 -11 324 q 39 362 19 351 q 80 377 58 372 q 119 378 101 382 q 132 361 135 375 q 114 349 129 346 q 83 347 100 351 q 52 335 67 343 q 26 317 38 328 q 11 299 14 307 q 11 293 10 294 q 51 260 36 278 q 72 222 65 242 q 142 273 108 246 q 199 331 175 300 q 238 427 215 378 q 286 525 261 476 q 259 522 271 524 q 238 519 247 521 q 213 517 224 519 q 197 531 197 517 q 200 542 196 538 q 211 547 204 546 q 220 548 214 547 q 235 550 226 549 q 270 553 253 551 q 304 557 288 554 q 366 662 336 615 q 415 735 396 708 q 453 774 440 767 q 475 779 465 782 q 501 754 496 772 q 483 675 508 726 q 418 564 458 624 q 469 560 456 564 q 479 542 485 557 q 461 532 476 526 q 437 535 454 535 q 397 533 419 535 q 340 456 369 493 q 285 388 310 418 q 244 338 261 357 q 225 317 228 319 l 225 315 q 205 249 211 276 q 197 202 199 221 q 198 173 196 183 q 203 157 200 163 q 224 149 210 149 q 264 165 240 150 q 315 203 288 179 q 370 261 342 228 q 425 333 399 294 q 434 340 428 339 q 446 338 440 340 q 450 329 451 335 q 446 318 449 324 q 394 248 422 283 q 335 185 365 213 q 277 139 306 157 q 224 119 249 121 l 222 119 q 178 140 194 119 q 167 193 167 161 q 179 265 168 225 q 131 226 156 244 q 79 190 106 208 q 71 145 79 167 q 47 107 63 124 q 12 81 32 90 q -33 71 -8 71 q -45 71 -40 71 q -57 74 -50 71 q -85 97 -81 79 q -64 133 -87 115 q 11 183 -40 151 m 339 560 q 360 561 350 561 q 381 563 371 561 q 421 623 403 594 q 451 676 439 651 q 469 718 464 700 q 472 746 475 736 q 469 749 472 749 q 418 688 454 742 q 339 560 382 635 m -49 101 q 3 110 -24 94 q 42 153 29 125 q 47 171 47 164 l 26 158 q -22 128 3 143 q -53 103 -46 113 q -49 101 -50 103 m 358 531 q 340 530 349 531 q 322 528 331 529 q 260 403 289 468 q 310 467 286 435 q 358 531 335 499 z "}}}
